<svg width="10" height="13" viewBox="0 0 10 13" fill="none" xmlns="http://www.w3.org/2000/svg">
<path d="M5.04688 0C4.18229 0 3.36458 0.182292 2.59375 0.546875C1.82292 0.911458 1.20833 1.41667 0.75 2.0625C0.25 2.76042 0 3.55208 0 4.4375C0 4.97917 0.09375 5.46875 0.28125 5.90625C0.4375 6.29167 0.645833 6.60417 0.90625 6.84375C1.13542 7.05208 1.35938 7.15625 1.57812 7.15625C1.68229 7.15625 1.77604 7.03646 1.85938 6.79688C1.92188 6.59896 1.95312 6.42708 1.95312 6.28125C1.95312 6.22917 1.90625 6.125 1.8125 5.96875C1.67708 5.75 1.58333 5.56771 1.53125 5.42188C1.42708 5.16146 1.375 4.89062 1.375 4.60938C1.375 3.95312 1.52604 3.36979 1.82812 2.85938C2.13021 2.33854 2.54688 1.93229 3.07812 1.64062C3.60938 1.34896 4.19792 1.20312 4.84375 1.20312C5.71875 1.20312 6.41667 1.4375 6.9375 1.90625C7.5 2.39583 7.78125 3.06771 7.78125 3.92188C7.78125 4.44271 7.71354 4.96354 7.57812 5.48438C7.42188 6.13021 7.1875 6.64062 6.875 7.01562C6.51042 7.47396 6.06771 7.70312 5.54688 7.70312C5.23438 7.70312 4.96354 7.60417 4.73438 7.40625C4.51562 7.19792 4.40625 6.9375 4.40625 6.625C4.40625 6.41667 4.4375 6.18229 4.5 5.92188C4.53125 5.77604 4.59375 5.54688 4.6875 5.23438C4.79167 4.92188 4.86458 4.6875 4.90625 4.53125C4.96875 4.27083 5 4.03125 5 3.8125C5 3.42708 4.88021 3.13542 4.64062 2.9375C4.43229 2.77083 4.17188 2.71875 3.85938 2.78125C3.55729 2.84375 3.29688 3.01042 3.07812 3.28125C2.84896 3.59375 2.73438 3.98438 2.73438 4.45312C2.73438 4.96354 2.8125 5.38021 2.96875 5.70312L2.79688 6.4375C2.54688 7.46875 2.36979 8.25521 2.26562 8.79688C2.08854 9.72396 2 10.4688 2 11.0312C2 11.2604 2.02604 11.6094 2.07812 12.0781L2.10938 12.4219L2.14062 12.4688C2.16146 12.4896 2.17188 12.5 2.17188 12.5C2.18229 12.5 2.20312 12.4948 2.23438 12.4844L2.28125 12.4688C2.60417 12.0312 2.84896 11.6458 3.01562 11.3125C3.18229 11.0104 3.31771 10.6875 3.42188 10.3438C3.48438 10.125 3.57812 9.75521 3.70312 9.23438C3.80729 8.74479 3.90104 8.34375 3.98438 8.03125C4.11979 8.3125 4.36458 8.53646 4.71875 8.70312C5.03125 8.84896 5.35417 8.92188 5.6875 8.92188C6.52083 8.92188 7.23958 8.67188 7.84375 8.17188C8.38542 7.73438 8.80208 7.125 9.09375 6.34375C9.36458 5.63542 9.5 4.88021 9.5 4.07812C9.5 3.27604 9.28646 2.55729 8.85938 1.92188C8.46354 1.31771 7.92188 0.848958 7.23438 0.515625C6.55729 0.171875 5.82812 0 5.04688 0Z" fill="#666666"/>
</svg>
