<svg width="48" height="48" viewBox="0 0 48 48" fill="none" xmlns="http://www.w3.org/2000/svg">
<path d="M24 4.5C20.4688 4.5 17.1875 5.39062 14.1562 7.17188C11.2188 8.89062 8.89062 11.2188 7.17188 14.1562C5.39062 17.1875 4.5 20.4688 4.5 24C4.5 27.5312 5.39062 30.8125 7.17188 33.8438C8.89062 36.7812 11.2188 39.1094 14.1562 40.8281C17.1875 42.6094 20.4688 43.5 24 43.5C27.5312 43.5 30.8125 42.6094 33.8438 40.8281C36.7812 39.1094 39.1094 36.7812 40.8281 33.8438C42.6094 30.8125 43.5 27.5312 43.5 24C43.5 20.4688 42.6094 17.1875 40.8281 14.1562C39.1094 11.2188 36.7812 8.89062 33.8438 7.17188C30.8125 5.39062 27.5312 4.5 24 4.5ZM24 7.5C27 7.5 29.7812 8.25 32.3438 9.75C34.8125 11.2188 36.7812 13.1875 38.25 15.6562C39.75 18.2188 40.5 21 40.5 24C40.5 27 39.75 29.7812 38.25 32.3438C36.7812 34.8125 34.8125 36.7812 32.3438 38.25C29.7812 39.75 27 40.5 24 40.5C21 40.5 18.2188 39.75 15.6562 38.25C13.1875 36.7812 11.2188 34.8125 9.75 32.3438C8.25 29.7812 7.5 27 7.5 24C7.5 21 8.25 18.2188 9.75 15.6562C11.2188 13.1875 13.1875 11.2188 15.6562 9.75C18.2188 8.25 21 7.5 24 7.5ZM24 12C22.6562 12 21.4062 12.3438 20.25 13.0312C19.0938 13.6875 18.1719 14.5938 17.4844 15.75C16.8281 16.9062 16.5 18.1562 16.5 19.5C16.5 20.5938 16.7344 21.6406 17.2031 22.6406C17.6719 23.6094 18.3281 24.4531 19.1719 25.1719C17.4531 26.0469 16.0781 27.3281 15.0469 29.0156C14.0156 30.6719 13.5 32.5 13.5 34.5H16.5C16.5 33.125 16.8281 31.875 17.4844 30.75C18.1719 29.5938 19.0781 28.6875 20.2031 28.0312C21.3594 27.3438 22.625 27 24 27C25.375 27 26.625 27.3438 27.75 28.0312C28.9062 28.6875 29.8125 29.5938 30.4688 30.75C31.1562 31.875 31.5 33.125 31.5 34.5H34.5C34.5 32.5 33.9844 30.6719 32.9531 29.0156C31.9219 27.3281 30.5469 26.0469 28.8281 25.1719C29.6719 24.4531 30.3281 23.6094 30.7969 22.6406C31.2656 21.6406 31.5 20.5938 31.5 19.5C31.5 18.1562 31.1562 16.9062 30.4688 15.75C29.8125 14.5938 28.9062 13.6875 27.75 13.0312C26.5938 12.3438 25.3438 12 24 12ZM24 15C25.25 15 26.3125 15.4375 27.1875 16.3125C28.0625 17.1875 28.5 18.25 28.5 19.5C28.5 20.75 28.0625 21.8125 27.1875 22.6875C26.3125 23.5625 25.25 24 24 24C22.75 24 21.6875 23.5625 20.8125 22.6875C19.9375 21.8125 19.5 20.75 19.5 19.5C19.5 18.25 19.9375 17.1875 20.8125 16.3125C21.6875 15.4375 22.75 15 24 15Z" fill="black"/>
</svg>
